<svg width="50" height="50" viewBox="0 0 50 50" fill="none" xmlns="http://www.w3.org/2000/svg">
<ellipse cx="25" cy="25" rx="25" ry="25" fill="#E5A024"/>
<path d="M21.0284 31.5273V30.082C21.0284 28.832 21.2953 27.7448 21.8292 26.8203C22.363 25.8958 23.3396 24.9128 24.7589 23.8711C26.126 22.8945 27.0245 22.1003 27.4542 21.4883C27.8969 20.8763 28.1182 20.1927 28.1182 19.4375C28.1182 18.5911 27.8057 17.9466 27.1807 17.5039C26.5557 17.0612 25.6833 16.8398 24.5635 16.8398C22.6104 16.8398 20.3839 17.4779 17.8839 18.7539L15.7549 14.4766C18.6586 12.849 21.738 12.0352 24.9932 12.0352C27.6755 12.0352 29.8044 12.6797 31.3799 13.9688C32.9685 15.2578 33.7628 16.9766 33.7628 19.125C33.7628 20.5573 33.4372 21.7943 32.7862 22.8359C32.1352 23.8776 30.8982 25.0495 29.0753 26.3516C27.8253 27.276 27.031 27.9792 26.6924 28.4609C26.3669 28.9427 26.2042 29.5742 26.2042 30.3555V31.5273H21.0284ZM20.4034 38.207C20.4034 37.1133 20.6964 36.2865 21.2823 35.7266C21.8682 35.1667 22.7211 34.8867 23.8409 34.8867C24.9216 34.8867 25.7549 35.1732 26.3409 35.7461C26.9398 36.319 27.2393 37.1393 27.2393 38.207C27.2393 39.2357 26.9398 40.0495 26.3409 40.6484C25.7419 41.2344 24.9086 41.5273 23.8409 41.5273C22.7471 41.5273 21.9008 41.2409 21.3018 40.668C20.7029 40.082 20.4034 39.2617 20.4034 38.207Z" fill="black"/>
</svg>
