<svg width="35" height="35" viewBox="0 0 35 35" fill="none" xmlns="http://www.w3.org/2000/svg">
<path d="M17.5 0C7.8345 0 0 7.83506 0 17.5C0 27.1655 7.8345 35 17.5 35C27.1655 35 35 27.1655 35 17.5C35 7.83506 27.1656 0 17.5 0ZM17.5 32.5C9.2285 32.5 2.5 25.7715 2.5 17.5C2.5 9.22913 9.2285 2.5 17.5 2.5C25.7715 2.5 32.5 9.22913 32.5 17.5C32.5 25.7715 25.7715 32.5 17.5 32.5ZM20 13.75H16.25H15H13.75V15H15V26.25H13.75V27.5H21.25V26.25H20V13.75ZM15 9.375C15 10.038 15.2634 10.6739 15.7322 11.1428C16.2011 11.6116 16.837 11.875 17.5 11.875C18.163 11.875 18.7989 11.6116 19.2678 11.1428C19.7366 10.6739 20 10.038 20 9.375C20 9.04669 19.9353 8.72161 19.8097 8.41829C19.6841 8.11498 19.4999 7.83938 19.2678 7.60723C19.0356 7.37509 18.76 7.19094 18.4567 7.0653C18.1534 6.93966 17.8283 6.875 17.5 6.875C17.1717 6.875 16.8466 6.93966 16.5433 7.0653C16.24 7.19094 15.9644 7.37509 15.7322 7.60723C15.5001 7.83938 15.3159 8.11498 15.1903 8.41829C15.0647 8.72161 15 9.04669 15 9.375Z" fill="black"/>
</svg>
